<svg version="1.0" xmlns="http://www.w3.org/2000/svg"
    width="180.000000pt" height="180.000000pt" viewBox="0 0 180.000000 180.000000"
    preserveAspectRatio="xMidYMid meet">

    <g transform="translate(0.000000,180.000000) scale(0.100000,-0.100000)"
        fill="#8a24ff" stroke="none">
        <path
            d="M527 1639 c-171 -25 -335 -185 -367 -358 -6 -31 -10 -267 -10 -568
l0 -514 25 -24 24 -25 528 0 c426 0 539 3 583 14 159 42 295 184 329 344 14
67 15 698 1 773 -33 178 -195 332 -376 359 -83 12 -655 11 -737 -1z m795 -166
c66 -30 132 -102 158 -170 20 -53 21 -71 18 -422 -3 -361 -3 -367 -26 -411
-30 -58 -75 -105 -132 -138 l-45 -27 -497 -3 -498 -3 0 476 c0 439 1 479 19
524 23 62 61 111 112 147 73 50 103 53 489 51 341 -2 357 -3 402 -24z" />
        <path
            d="M998 953 l-178 -178 -85 85 -85 84 -50 -49 -50 -49 137 -138 138
-138 232 232 233 233 -47 47 c-26 27 -52 48 -58 48 -5 0 -90 -80 -187 -177z" />
    </g>
</svg>